<svg xmlns="http://www.w3.org/2000/svg" viewBox="0 0 200 200"><defs><style>.cls-1{fill:#fff;}</style></defs><title>cloudy</title><g id="cloudy"><path class="cls-1" d="M59.06,124.51s-1.94-10.41,9.73-17.71c11.88-7.44,20.15.83,20.15.83s.29-18.85,25.22-20.49c23.31-1.54,27.56,14,27.56,14s11.31-9.38,26.11,2.49c11.33,9.08,8.73,20.3,8.73,20.3s7.2,1.36,11.27-.17c4.83-2,9.68-6.66,8.16-17-3.84-26-30.13-17.18-30.13-17.18s5.9-14.4-7.94-25.5c-18.08-14.5-32.32-2.42-32.32-2.42S121.47,42.59,93,44.47c-30.46,2-29.59,24.7-29.59,24.7A20.44,20.44,0,0,0,39,67.56C24.64,76.29,28.6,88.77,28.6,88.77S6.95,86.63,3.13,103.26c-4.11,17.87,8.22,22,15.34,22Z"/><path class="cls-1" d="M54.62,157H184.45c3.08,0,14.5-1.46,12.52-15.16-3.08-21.31-24.17-14.06-24.17-14.06s4.73-11.79-6.37-20.87c-14.5-11.86-25.92-2-25.92-2s-3.3-15.6-26.14-14.06c-24.43,1.64-23.73,20.21-23.73,20.21A16.15,16.15,0,0,0,71.1,109.8c-11.52,7.14-8.35,17.36-8.35,17.36S45.38,125.41,42.32,139C39,153.65,48.91,157,54.62,157Z"/></g></svg>