<svg xmlns="http://www.w3.org/2000/svg" viewBox="0 0 210 210"><defs><style>.cls-1{fill:#fff;}.cls-2{fill:none;stroke:#fff;stroke-linecap:round;stroke-miterlimit:10;stroke-width:8px;}</style></defs><title>foggy</title><g id="foggy"><path class="cls-1" d="M19.28,129.12H191c4.07,0,19.18-1.93,16.56-20-4.07-28.18-32-18.6-32-18.6s6.26-15.59-8.43-27.6c-19.18-15.69-34.29-2.61-34.29-2.61s-4.36-20.63-34.58-18.6C66,43.83,66.93,68.39,66.93,68.39a21.36,21.36,0,0,0-25.86-1.74c-15.24,9.45-11,23-11,23s-23-2.31-27,15.69C-1.35,124.64,11.73,129.12,19.28,129.12Z"/><line class="cls-2" x1="172" y1="164.28" x2="127.37" y2="164.28"/><line class="cls-2" x1="112.87" y1="164.28" x2="38.67" y2="164.28"/><line class="cls-2" x1="28.67" y1="144.28" x2="80" y2="144.28"/><line class="cls-2" x1="96.67" y1="144.28" x2="182" y2="144.28"/></g></svg>