<svg xmlns="http://www.w3.org/2000/svg" viewBox="0 0 200 200"><defs><style>.cls-1{fill:#fff;}.cls-2{fill:none;stroke:#fff;stroke-linecap:round;stroke-miterlimit:10;stroke-width:8px;}</style></defs><title>foggy</title><g id="foggy"><path class="cls-1" d="M18.36,123H181.9c3.87,0,18.26-1.84,15.77-19.09C193.8,77,167.24,86.16,167.24,86.16s6-14.85-8-26.29c-18.26-14.94-32.65-2.49-32.65-2.49s-4.15-19.65-32.93-17.71C62.86,41.75,63.74,65.13,63.74,65.13a20.34,20.34,0,0,0-24.63-1.66C24.6,72.47,28.6,85.33,28.6,85.33S6.73,83.13,2.87,100.28C-1.29,118.7,11.17,123,18.36,123Z"/><line class="cls-2" x1="163.81" y1="156.46" x2="121.3" y2="156.46"/><line class="cls-2" x1="107.5" y1="156.46" x2="36.83" y2="156.46"/><line class="cls-2" x1="27.3" y1="137.41" x2="76.19" y2="137.41"/><line class="cls-2" x1="92.07" y1="137.41" x2="173.34" y2="137.41"/></g></svg>