<svg xmlns="http://www.w3.org/2000/svg" viewBox="0 0 210 210"><defs><style>.cls-1{fill:#fff;}</style></defs><title>partly_cloudy</title><g id="partly_cloudy"><circle class="cls-1" cx="66.96" cy="105.45" r="42.6"/><polygon class="cls-1" points="66.96 43.13 74.52 56.07 59.91 56.07 66.96 43.13"/><polygon class="cls-1" points="97.99 51.23 98.13 66.21 85.45 58.95 97.99 51.23"/><polygon class="cls-1" points="120.77 74.16 113.38 87.19 106.04 74.56 120.77 74.16"/><polygon class="cls-1" points="13.16 74.16 20.55 87.19 27.89 74.56 13.16 74.16"/><polygon class="cls-1" points="11.96 134.71 19.35 121.67 26.68 134.31 11.96 134.71"/><polygon class="cls-1" points="120.77 136.96 113.38 123.92 106.04 136.56 120.77 136.96"/><polygon class="cls-1" points="128.96 105.68 115.98 98.19 116.06 112.8 128.96 105.68"/><polygon class="cls-1" points="5.14 105.68 18.11 98.19 18.03 112.8 5.14 105.68"/><polygon class="cls-1" points="35.83 51.23 35.69 66.21 48.37 58.95 35.83 51.23"/><polygon class="cls-1" points="36.19 159.45 36.05 144.46 48.73 151.72 36.19 159.45"/><polygon class="cls-1" points="97.81 159.45 97.95 144.46 85.27 151.72 97.81 159.45"/><polygon class="cls-1" points="67.15 167.5 74.71 154.57 60.1 154.57 67.15 167.5"/><path class="cls-1" d="M34,167.8H193.22c3.77,0,17.78-1.79,15.36-18.59C204.81,123.08,178.95,132,178.95,132s5.8-14.45-7.81-25.59c-17.78-14.55-31.79-2.42-31.79-2.42s-4-19.13-32.06-17.24c-30,2-29.1,24.79-29.1,24.79a19.8,19.8,0,0,0-24-1.62C40.08,118.64,44,131.16,44,131.16S22.68,129,18.92,145.71C14.88,163.65,27,167.8,34,167.8Z"/></g></svg>