<svg xmlns="http://www.w3.org/2000/svg" viewBox="0 0 200 200"><defs><style>.cls-1{fill:#fff;}</style></defs><title>partly_cloudy</title><g id="partly_cloudy"><path class="cls-1" d="M39,124.91s-4.38-11.49,9.08-19.83c12.83-8,24.46.42,24.46.42S70.8,84.67,99,82.61a40.57,40.57,0,1,0-66.91,42.55A32.68,32.68,0,0,1,39,124.91Z"/><polygon class="cls-1" points="60.91 37.27 68.12 49.59 54.2 49.59 60.91 37.27"/><polygon class="cls-1" points="90.47 44.98 90.6 59.25 78.52 52.34 90.47 44.98"/><polygon class="cls-1" points="112.16 66.82 105.12 79.23 98.13 67.2 112.16 66.82"/><polygon class="cls-1" points="9.68 66.82 16.71 79.23 23.7 67.2 9.68 66.82"/><polygon class="cls-1" points="8.53 124.48 15.57 112.07 22.55 124.1 8.53 124.48"/><polygon class="cls-1" points="2.04 96.84 14.39 89.7 14.32 103.62 2.04 96.84"/><polygon class="cls-1" points="31.26 44.98 31.13 59.25 43.21 52.34 31.26 44.98"/><path class="cls-1" d="M32.39,163.62H184c3.59,0,16.93-1.71,14.62-17.7-3.59-24.89-28.22-16.42-28.22-16.42S176,115.73,163,105.12c-16.93-13.86-30.28-2.31-30.28-2.31s-3.85-18.22-30.53-16.42C73.64,88.31,74.46,110,74.46,110a18.86,18.86,0,0,0-22.84-1.54c-13.46,8.34-9.75,20.27-9.75,20.27s-20.28-2-23.86,13.86C14.17,159.66,25.72,163.62,32.39,163.62Z"/></g></svg>