<svg xmlns="http://www.w3.org/2000/svg" viewBox="0 0 200 200"><defs><style>.cls-1{fill:#fff;}</style></defs><title>rainy</title><g id="rainy"><path class="cls-1" d="M18.36,107.73H181.9c3.87,0,18.26-1.84,15.77-19.09-3.87-26.84-30.44-17.71-30.44-17.71s6-14.85-8-26.29c-18.26-14.94-32.65-2.49-32.65-2.49S122.41,22.5,93.63,24.44C62.86,26.51,63.74,49.89,63.74,49.89a20.34,20.34,0,0,0-24.63-1.66C24.6,57.23,28.6,70.1,28.6,70.1S6.73,67.89,2.87,85C-1.29,103.46,11.17,107.73,18.36,107.73Z"/><path class="cls-1" d="M34.9,115.68c-4.57,11.21-9.34,11.48-9.34,19.85,0,11.21,18.68,11.21,18.68,0C44.23,127.17,39.46,126.89,34.9,115.68Z"/><path class="cls-1" d="M78.06,115.68c-4.57,11.21-9.34,11.48-9.34,19.85,0,11.21,18.68,11.21,18.68,0C87.4,127.17,82.63,126.89,78.06,115.68Z"/><path class="cls-1" d="M121,115.68c-4.57,11.21-9.34,11.48-9.34,19.85,0,11.21,18.68,11.21,18.68,0C130.36,127.17,125.59,126.89,121,115.68Z"/><path class="cls-1" d="M164.19,115.68c-4.57,11.21-9.34,11.48-9.34,19.85,0,11.21,18.68,11.21,18.68,0C173.53,127.17,168.76,126.89,164.19,115.68Z"/><path class="cls-1" d="M142.82,147.44c-4.57,11.21-9.34,11.48-9.34,19.85,0,11.21,18.68,11.21,18.68,0C152.15,158.92,147.38,158.64,142.82,147.44Z"/><path class="cls-1" d="M99.23,147.44c-4.57,11.21-9.34,11.48-9.34,19.85,0,11.21,18.68,11.21,18.68,0C108.57,158.92,103.8,158.64,99.23,147.44Z"/><path class="cls-1" d="M56.48,147.44c-4.57,11.21-9.34,11.48-9.34,19.85,0,11.21,18.68,11.21,18.68,0C65.82,158.92,61,158.64,56.48,147.44Z"/></g></svg>