<svg xmlns="http://www.w3.org/2000/svg" viewBox="0 0 210 210"><defs><style>.cls-1{fill:#fff;}</style></defs><title>rainy</title><g id="rainy"><path class="cls-1" d="M19.28,113.12H191c4.07,0,19.18-1.93,16.56-20-4.07-28.18-32-18.6-32-18.6s6.26-15.59-8.43-27.6c-19.18-15.69-34.29-2.61-34.29-2.61s-4.36-20.63-34.58-18.6C66,27.83,66.93,52.39,66.93,52.39a21.36,21.36,0,0,0-25.86-1.74c-15.24,9.45-11,23-11,23s-23-2.31-27,15.69C-1.35,108.64,11.73,113.12,19.28,113.12Z"/><path class="cls-1" d="M36.64,121.47c-4.79,11.77-9.81,12.06-9.81,20.85,0,11.77,19.61,11.77,19.61,0C46.45,133.53,41.43,133.24,36.64,121.47Z"/><path class="cls-1" d="M82,121.47c-4.79,11.77-9.81,12.06-9.81,20.85,0,11.77,19.61,11.77,19.61,0C91.77,133.53,86.76,133.24,82,121.47Z"/><path class="cls-1" d="M127.07,121.47c-4.79,11.77-9.81,12.06-9.81,20.85,0,11.77,19.61,11.77,19.61,0C136.88,133.53,131.87,133.24,127.07,121.47Z"/><path class="cls-1" d="M172.4,121.47c-4.79,11.77-9.81,12.06-9.81,20.85,0,11.77,19.61,11.77,19.61,0C182.21,133.53,177.2,133.24,172.4,121.47Z"/><path class="cls-1" d="M150,154.81c-4.79,11.77-9.81,12.06-9.81,20.85,0,11.77,19.61,11.77,19.61,0C159.76,166.87,154.75,166.58,150,154.81Z"/><path class="cls-1" d="M104.19,154.81c-4.79,11.77-9.81,12.06-9.81,20.85,0,11.77,19.61,11.77,19.61,0C114,166.87,109,166.58,104.19,154.81Z"/><path class="cls-1" d="M59.3,154.81c-4.79,11.77-9.81,12.06-9.81,20.85,0,11.77,19.61,11.77,19.61,0C69.11,166.87,64.1,166.58,59.3,154.81Z"/></g></svg>