<svg xmlns="http://www.w3.org/2000/svg" viewBox="0 0 200 200"><defs><style>.cls-1{fill:#fff;}.cls-2,.cls-3{fill:none;stroke:#fff;stroke-linecap:round;stroke-miterlimit:10;}.cls-2{stroke-width:7px;}.cls-3{stroke-width:6px;}</style></defs><title>snowy</title><g id="snowy"><path class="cls-1" d="M18.36,108.68H181.9c3.87,0,18.26-1.84,15.77-19.09-3.87-26.84-30.44-17.71-30.44-17.71s6-14.85-8-26.29c-18.26-14.94-32.65-2.49-32.65-2.49s-4.15-19.65-32.93-17.71C62.86,27.46,63.74,50.85,63.74,50.85a20.34,20.34,0,0,0-24.63-1.66C24.6,58.19,28.6,71,28.6,71S6.73,68.85,2.87,86C-1.29,104.41,11.17,108.68,18.36,108.68Z"/><line class="cls-2" x1="78.81" y1="127.79" x2="78.81" y2="173.59"/><line class="cls-2" x1="103.4" y1="150.69" x2="54.22" y2="150.69"/><line class="cls-2" x1="93.84" y1="165.72" x2="63.78" y2="135.66"/><line class="cls-2" x1="93.84" y1="135.66" x2="63.78" y2="165.72"/><line class="cls-3" x1="129.85" y1="114.23" x2="129.85" y2="149.53"/><line class="cls-3" x1="147.33" y1="131.88" x2="112.38" y2="131.88"/><line class="cls-3" x1="140.53" y1="142.56" x2="119.17" y2="121.2"/><line class="cls-3" x1="140.53" y1="121.2" x2="119.17" y2="142.56"/></g></svg>