<svg xmlns="http://www.w3.org/2000/svg" viewBox="0 0 210 210"><defs><style>.cls-1{fill:#fff;}.cls-2,.cls-3{fill:none;stroke:#fff;stroke-linecap:round;stroke-miterlimit:10;}.cls-2{stroke-width:7px;}.cls-3{stroke-width:6px;}</style></defs><title>snowy</title><g id="snowy"><path class="cls-1" d="M19.28,114.12H191c4.07,0,19.18-1.93,16.56-20-4.07-28.18-32-18.6-32-18.6s6.26-15.59-8.43-27.6c-19.18-15.69-34.29-2.61-34.29-2.61s-4.36-20.63-34.58-18.6C66,28.83,66.93,53.39,66.93,53.39a21.36,21.36,0,0,0-25.86-1.74c-15.24,9.45-11,23-11,23s-23-2.31-27,15.69C-1.35,109.64,11.73,114.12,19.28,114.12Z"/><line class="cls-2" x1="82.75" y1="134.18" x2="82.75" y2="182.27"/><line class="cls-2" x1="108.57" y1="158.22" x2="56.93" y2="158.22"/><line class="cls-2" x1="98.53" y1="174" x2="66.97" y2="142.45"/><line class="cls-2" x1="98.53" y1="142.45" x2="66.97" y2="174"/><line class="cls-3" x1="136.34" y1="119.94" x2="136.34" y2="157"/><line class="cls-3" x1="154.69" y1="138.47" x2="117.99" y2="138.47"/><line class="cls-3" x1="147.56" y1="149.69" x2="125.13" y2="127.26"/><line class="cls-3" x1="147.56" y1="127.26" x2="125.13" y2="149.69"/></g></svg>