<svg id="stormy" xmlns="http://www.w3.org/2000/svg" viewBox="0 0 210 210"><defs><style>.cls-1{fill:#fff;}</style></defs><title>stormy</title><path class="cls-1" d="M19.28,114.12H191c4.07,0,19.18-1.93,16.56-20-4.07-28.18-32-18.6-32-18.6s6.26-15.59-8.43-27.6c-19.18-15.69-34.29-2.61-34.29-2.61s-4.36-20.63-34.58-18.6C66,28.83,66.93,53.39,66.93,53.39a21.36,21.36,0,0,0-25.86-1.74c-15.24,9.45-11,23-11,23s-23-2.31-27,15.69C-1.35,109.64,11.73,114.12,19.28,114.12Z"/><polygon class="cls-1" points="86.76 121.44 127.87 121.44 109.93 139.39 131.61 139.39 62.83 184.99 87.5 145.37 72.55 145.37 86.76 121.44"/></svg>