<svg id="stormy" xmlns="http://www.w3.org/2000/svg" viewBox="0 0 200 200"><defs><style>.cls-1{fill:#fff;}</style></defs><title>stormy</title><path class="cls-1" d="M18.36,108.68H181.9c3.87,0,18.26-1.84,15.77-19.09-3.87-26.84-30.44-17.71-30.44-17.71s6-14.85-8-26.29c-18.26-14.94-32.65-2.49-32.65-2.49s-4.15-19.65-32.93-17.71C62.86,27.46,63.74,50.85,63.74,50.85a20.34,20.34,0,0,0-24.63-1.66C24.6,58.19,28.6,71,28.6,71S6.73,68.85,2.87,86C-1.29,104.41,11.17,108.68,18.36,108.68Z"/><polygon class="cls-1" points="82.62 115.66 121.78 115.66 104.7 132.75 125.34 132.75 59.84 176.18 83.34 138.44 69.1 138.44 82.62 115.66"/></svg>