<svg xmlns="http://www.w3.org/2000/svg" viewBox="0 0 210 210"><defs><style>.cls-1{fill:#fff;}</style></defs><title>sunny</title><g id="sunny"><circle class="cls-1" cx="103.98" cy="105.03" r="69.78"/><polygon class="cls-1" points="103.98 2.94 116.37 24.13 92.43 24.13 103.98 2.94"/><polygon class="cls-1" points="154.81 16.2 155.04 40.75 134.27 28.86 154.81 16.2"/><polygon class="cls-1" points="192.13 53.77 180.02 75.12 168 54.42 192.13 53.77"/><polygon class="cls-1" points="15.85 53.77 27.96 75.12 39.97 54.42 15.85 53.77"/><polygon class="cls-1" points="15.85 156.64 27.96 135.28 39.97 155.99 15.85 156.64"/><polygon class="cls-1" points="192.13 156.64 180.02 135.28 168 155.99 192.13 156.64"/><polygon class="cls-1" points="205.54 105.41 184.29 93.14 184.42 117.07 205.54 105.41"/><polygon class="cls-1" points="2.71 105.41 23.96 93.14 23.83 117.07 2.71 105.41"/><polygon class="cls-1" points="52.98 16.2 52.75 40.75 73.52 28.86 52.98 16.2"/><polygon class="cls-1" points="53.57 193.49 53.34 168.94 74.11 180.83 53.57 193.49"/><polygon class="cls-1" points="154.52 193.49 154.75 168.94 133.98 180.83 154.52 193.49"/><polygon class="cls-1" points="104.29 206.68 116.68 185.49 92.75 185.49 104.29 206.68"/></g></svg>