<svg xmlns="http://www.w3.org/2000/svg" viewBox="0 0 200 200"><defs><style>.cls-1{fill:#fff;}</style></defs><title>sunny</title><g id="sunny"><circle class="cls-1" cx="100.48" cy="100.47" r="53.56"/><polygon class="cls-1" points="100.48 22.11 109.99 38.37 91.62 38.37 100.48 22.11"/><polygon class="cls-1" points="139.5 32.28 139.68 51.12 123.73 42 139.5 32.28"/><polygon class="cls-1" points="168.14 61.12 158.85 77.51 149.62 61.62 168.14 61.12"/><polygon class="cls-1" points="32.84 61.12 42.13 77.51 51.35 61.62 32.84 61.12"/><polygon class="cls-1" points="32.84 140.08 42.13 123.69 51.35 139.58 32.84 140.08"/><polygon class="cls-1" points="168.14 140.08 158.85 123.69 149.62 139.58 168.14 140.08"/><polygon class="cls-1" points="178.44 100.76 162.12 91.33 162.22 109.71 178.44 100.76"/><polygon class="cls-1" points="22.75 100.76 39.06 91.33 38.96 109.71 22.75 100.76"/><polygon class="cls-1" points="61.34 32.28 61.16 51.12 77.11 42 61.34 32.28"/><polygon class="cls-1" points="61.79 168.36 61.61 149.52 77.56 158.65 61.79 168.36"/><polygon class="cls-1" points="139.27 168.36 139.45 149.52 123.5 158.65 139.27 168.36"/><polygon class="cls-1" points="100.72 178.49 110.23 162.22 91.86 162.22 100.72 178.49"/></g></svg>